/* XPM */
static char *wall_xpm[] = {
"16 16 3 1",
"0 c #2E7D32",   /* dark green (border / stripes) */
"1 c #A5D6A7",   /* light green (background) */
"2 c #1B5E20",   /* darker green (border) */
"2222222222222222",
"2111111111111112",
"2100000000000012",
"2100000000000012",
"2101111111111112",
"2101111111111112",
"2101111111111112",
"2100000000000012",
"2100000000000012",
"2101111111111112",
"2101111111111112",
"2101111111111112",
"2100000000000012",
"2100000000000012",
"2111111111111112",
"2222222222222222"
};
