/* XPM */
static char *wall_xpm[] = {
"16 16 3 1",
"0 c #2E7D32",   /* dark green (border / stripes) */
"1 c #A5D6A7",   /* light green (background) */
"2 c #1B5E20",   /* darker green (border) */
"2222222222222222",
"2111111111111112",
"2101111111111112",
"2100111111111012",
"2101011111111012",
"2101101111111012",
"2101110111111012",
"2101111011111012",
"2101111101111012",
"2101111110111012",
"2101111111011012",
"2101111111101012",
"2101111111110012",
"2101111111111012",
"2111111111111112",
"2222222222222222"
};
