/* XPM */
static char *wall_s_xpm[] = {
"16 16 3 1",
"0 c #2E7D32",   /* dark green (S shape) */
"1 c #A5D6A7",   /* light green (background) */
"2 c #1B5E20",   /* darker green (border) */
"2222222222222222",
"2111111111111112",
"2110000000011112",
"2100000000001112",
"2100000000001112",
"2111111110001112",
"2111111110001112",
"2111111110001112",
"2110000000011112",
"2100000000001112",
"2100000000001112",
"2100011111111112",
"2100011111111112",
"2110000000000012",
"2111111111111112",
"2222222222222222"
};
